<?xml version="1.0" encoding="utf-8"?>
<!-- Generator: Adobe Illustrator 19.0.0, SVG Export Plug-In . SVG Version: 6.00 Build 0)  -->
<svg version="1.1" id="图层_1" xmlns="http://www.w3.org/2000/svg" x="0px" y="0px"
     viewBox="0 0 256 256" style="enable-background:new 0 0 256 256;" xml:space="preserve">
<style type="text/css">
	.st0{fill:#FFFFFF;}
</style>
    <g>
	<path class="st0" d="M256,256c-85.3,0-170.6,0-256,0C0,170.7,0,85.5,0,0c85.3,0,170.6,0,256,0C256,85.2,256,170.6,256,256z
		 M229.2,221.4c-4.5-3.9-8.7-7.2-12.6-11.1c-14.3-14.2-28.6-28.4-42.7-42.8c-4.4-4.5-8.2-9.5-12.2-14.4c-4.6-5.8-9.1-11.7-13.6-17.5
		c-0.5,0.6-1,1.2-1.5,1.8c-1.5-0.6-3.4-0.8-4.4-1.8c-14.5-14.4-29-28.9-43.3-43.6c-1.6-1.6-2.8-4.8-2.5-6.9c1.3-8.9-5.8-11.8-11-18
		c0,7.6,0.3,13.5-0.1,19.5c-0.3,4.6,1.3,7.7,4.5,10.9c14.3,14,28.4,28.2,42.3,42.5c2,2.1,6.8,3.4,3.8,8.2c-0.2,0.3,0.8,1.4,1.4,1.9
		c4.7,3.9,9.4,7.9,14.2,11.7c2.7,2.2,6,3.7,8.4,6.1c11.7,11.4,23.1,23.1,34.7,34.6c5.3,5.3,10.6,10.6,15.8,16
		c3.5,3.7,6.8,7.5,9.9,11C223.6,226.4,225.9,224.3,229.2,221.4z M37.2,27.3c-2.8,3-5.6,6-8.4,9.1c-0.6,0.7-1.1,1.7-1.1,2.6
		c0,10.8,0,21.7,0.1,32.5c5.4,5.6,10.8,11.3,16.3,16.9c0.5,0.5,0.9,1.1,1.4,1.4c0.8,0.5,1.8,1.1,2.7,1.1c10.1,0.1,20.2,0,30.6,0
		c0-3.4,0-6.3,0-9.6c-8.5,0-16.6,0.1-24.8-0.1c-1.7,0-3.7-0.5-4.9-1.5C37,69.6,37,69.6,37,53.6c0-0.7,0.1-1.3,0-2
		c-1.1-7,0.8-12.7,6.7-16.8c0.2-0.1,0.2-0.6,0.5-1.4C42.3,31.7,40.2,29.9,37.2,27.3z M43.5,44.1c-4.5,26.8,10.9,35.3,31.2,31
		C78.3,51.3,68.1,40.4,43.5,44.1z M59.9,23.5c9.3,9.3,18.3,18.2,27.5,27.3c-2.1-7-4.2-13.8-6.5-21.1c22.1-1.9,43.5-3.8,64.9-5.6
		c0-0.2-0.1-0.4-0.1-0.6C117.3,23.5,88.7,23.5,59.9,23.5z M26.2,85.7c0,28.7,0,57.4,0,86.2c0.2,0,0.4,0,0.6,0
		c1.9-21.6,3.7-43.2,5.6-65.4c7.4,2.2,14.1,4.3,21.2,6.4C44.4,103.6,35.4,94.7,26.2,85.7z"/>
        <path d="M229.2,221.4c-3.3,2.9-5.6,5-8.9,8c-3.1-3.5-6.4-7.4-9.9-11c-5.2-5.4-10.5-10.7-15.8-16c-11.5-11.6-23-23.2-34.7-34.6
		c-2.5-2.4-5.7-4-8.4-6.1c-4.8-3.8-9.5-7.8-14.2-11.7c-0.6-0.5-1.5-1.6-1.4-1.9c3-4.7-1.8-6.1-3.8-8.2c-14-14.3-28.1-28.5-42.3-42.5
		c-3.2-3.1-4.9-6.2-4.5-10.9c0.4-5.9,0.1-11.9,0.1-19.5c5.2,6.1,12.3,9,11,18c-0.3,2.2,0.9,5.3,2.5,6.9
		c14.3,14.7,28.8,29.1,43.3,43.6c1.1,1,2.9,1.3,4.4,1.8c0.5-0.6,1-1.2,1.5-1.8c4.5,5.8,9,11.8,13.6,17.5c3.9,4.9,7.8,9.9,12.2,14.4
		c14.1,14.4,28.4,28.6,42.7,42.8C220.4,214.1,224.7,217.5,229.2,221.4z"/>
        <path d="M37.2,27.3c3,2.6,5.1,4.4,7,6.1c-0.3,0.8-0.3,1.2-0.5,1.4c-6,4.1-7.8,9.9-6.7,16.8c0.1,0.7,0,1.3,0,2c0,16,0,16,12,26.1
		c1.2,1,3.3,1.5,4.9,1.5c8.2,0.2,16.3,0.1,24.8,0.1c0,3.3,0,6.1,0,9.6c-10.3,0-20.5,0-30.6,0c-0.9,0-1.8-0.6-2.7-1.1
		c-0.6-0.3-1-0.9-1.4-1.4c-5.4-5.6-10.8-11.3-16.3-16.9c0-10.8-0.1-21.7-0.1-32.5c0-0.9,0.5-1.9,1.1-2.6
		C31.6,33.3,34.4,30.3,37.2,27.3z"/>
        <path d="M43.5,44.1c24.6-3.7,34.8,7.3,31.2,31C54.4,79.4,39,70.9,43.5,44.1z"/>
        <path d="M59.9,23.5c28.8,0,57.3,0,85.8,0c0,0.2,0.1,0.4,0.1,0.6C124.5,26,103,27.8,81,29.7c2.2,7.2,4.3,14.1,6.5,21.1
		C78.2,41.7,69.3,32.8,59.9,23.5z"/>
        <path d="M26.2,85.7c9.2,9.1,18.1,18,27.5,27.3c-7.1-2.2-13.9-4.2-21.2-6.4c-1.9,22.1-3.8,43.8-5.6,65.4c-0.2,0-0.4,0-0.6,0
		C26.2,143.1,26.2,114.4,26.2,85.7z"/>
</g>
</svg>
