<?xml version="1.0" encoding="utf-8"?>
<!-- Generator: Adobe Illustrator 19.0.0, SVG Export Plug-In . SVG Version: 6.00 Build 0)  -->
<svg version="1.1" id="图层_1" xmlns="http://www.w3.org/2000/svg" x="0px" y="0px"
     viewBox="0 0 400 400" style="enable-background:new 0 0 400 400;" xml:space="preserve">
<style type="text/css">
	.st0{fill:#FFFFFF;}
</style>
    <rect id="XMLID_1_" x="58.6" y="58.6" transform="matrix(0.7071 -0.7071 0.7071 0.7071 -82.8427 200)" class="st0"
          width="282.8" height="282.8"/>
    <g id="XMLID_2_">
	<path id="XMLID_5_" d="M288.5,264.8c0,1.5-1.1,3.5-3.3,5.9c-19.2,20.4-44.8,30.6-76.6,30.6c-32.6,0-59-9.9-79.3-29.8
		c-19.7-19.2-29.6-43.5-29.6-72.7c0-28.4,9.7-52.4,29-72.2c20.2-20.7,45.8-31.1,77-31.1c33.9,0,60.4,9.3,79.6,27.8
		c2.1,2.1,3.1,3.9,3.1,5.5c0,1.8-3.6,8.3-10.9,19.7c-7.3,11.4-11.8,17.8-13.7,19.2c-0.8,0.7-1.9,1.1-3.1,1.1c-0.5,0-3.1-1.9-7.8-5.6
		c-5.6-4.5-11.2-8-16.6-10.5c-8.3-3.7-16.8-5.6-25.7-5.6c-15.4,0-27.6,5.1-36.8,15.4c-8.5,9.5-12.7,21.3-12.7,35.3
		c0,14.2,4.2,26.1,12.7,35.7c9.2,10.4,21.5,15.7,36.8,15.7c9.1,0,17.7-1.8,25.9-5.3c5.3-2.3,10.8-5.6,16.3-9.8
		c4.6-3.5,7.2-5.3,7.7-5.3c1,0,2.1,0.5,3.1,1.5c1.7,1.7,6.2,7.5,13.6,17.5C284.7,258,288.5,263.7,288.5,264.8z"/>
</g>
</svg>
