<?xml version="1.0" encoding="utf-8"?>
<!-- Generator: Adobe Illustrator 19.0.0, SVG Export Plug-In . SVG Version: 6.00 Build 0)  -->
<svg version="1.1" id="图层_1" xmlns="http://www.w3.org/2000/svg" x="0px" y="0px"
     viewBox="0 0 256 256" style="enable-background:new 0 0 256 256;" xml:space="preserve">
<style type="text/css">
	.st0{fill:#FFFFFF;}
</style>
    <g>
	<path class="st0" d="M0,0c85.3,0,170.6,0,256,0c0,85.2,0,170.5,0,256c-85.3,0-170.6,0-256,0C0,170.8,0,85.4,0,0z M198.2,170.4
		c1.9-32.8,3.9-65.5,5.8-98.3c-8.8-3.8-17.4-7.5-26.1-11.3c0-4,0-7.8,0-12.2c-7.8,0-15.2,0-21.8,0c-9.1-6.1-17.4-11.6-25.8-17.1
		c-1.8,1.1-3.3,2.1-4.9,3.1c-6,3.9-12,7.9-17.9,11.9c-2,1.4-4.1,2.1-6.5,2c-5.7-0.1-11.3-0.1-17,0c-1.1,0-2.2,0.3-3.5,0.5
		c0,4.1,0,7.9,0,11.8C72,64.5,63.7,68.3,55.4,72c2.1,33.1,4.2,65.8,6.3,98.4c23.1,18.1,45.9,35.9,68.9,53.9
		C153.1,206.3,175.6,188.4,198.2,170.4z M67.4,193.9c-2-2.5-3.6-4.6-5.5-6.9c-7.6,9.6-15,19-22.4,28.4c0.2,0.1,0.3,0.3,0.5,0.4
		C49.4,208.3,58.7,200.9,67.4,193.9z M221.1,31.7c-0.2-0.2-0.4-0.5-0.7-0.7c-9,7.2-17.9,14.3-26.9,21.5c2.2,2.3,4,4.2,6,6.4
		C206.9,49.6,214,40.6,221.1,31.7z M39.8,29.8c-0.2,0.2-0.3,0.3-0.5,0.5c7.5,9.5,15.1,19,22.3,28c2.4-2.1,4.4-3.9,6.6-5.8
		C58.6,44.8,49.2,37.3,39.8,29.8z M221.5,215.8c0.2-0.2,0.3-0.3,0.5-0.5c-7.4-9.4-14.9-18.8-21.3-26.9c-2.5,1.6-4.9,3.1-7.5,4.8
		C203.1,201,212.3,208.4,221.5,215.8z"/>
        <path d="M198.2,170.4c-22.6,18-45.1,35.9-67.7,53.9c-23-18-45.7-35.8-68.9-53.9c-2.1-32.5-4.2-65.2-6.3-98.4
		c8.4-3.7,16.7-7.5,25.2-11.3c0-3.9,0-7.7,0-11.8c1.3-0.2,2.4-0.5,3.5-0.5c5.7-0.1,11.3-0.1,17,0c2.5,0,4.5-0.6,6.5-2
		c5.9-4,11.9-7.9,17.9-11.9c1.5-1,3.1-2,4.9-3.1c8.4,5.6,16.7,11.1,25.8,17.1c6.6,0,14.1,0,21.8,0c0,4.4,0,8.2,0,12.2
		c8.7,3.8,17.2,7.5,26.1,11.3C202.1,104.8,200.1,137.6,198.2,170.4z M130.3,43.7c-7.8,5.1-15.3,10-23.2,15.3c-5.9,0-12.1,0-18.8,0
		c0,3.5,0,6.6,0,9.9c-7.8,3.4-15.4,6.7-22.9,10c1.6,29.1,3.2,57.7,4.8,86.3c20.2,15.8,40.2,31.5,60.4,47.3
		c20.1-15.8,39.9-31.5,60-47.3c1.2-28.7,2.4-57.5,3.6-86.2c-8.2-3.4-16-6.7-24.1-10.1c0-3.3,0-6.4,0-9.9c-6,0-11.6,0-16.9,0
		C145.4,53.8,138.1,48.9,130.3,43.7z"/>
        <path d="M67.4,193.9c-8.8,7-18.1,14.4-27.4,21.9c-0.2-0.1-0.3-0.3-0.5-0.4C47,206,54.4,196.6,61.9,187
		C63.8,189.3,65.5,191.4,67.4,193.9z"/>
        <path d="M221.1,31.7c-7.1,9-14.2,17.9-21.5,27.2c-2.1-2.2-3.9-4.1-6-6.4c8.9-7.1,17.9-14.3,26.9-21.5
		C220.6,31.2,220.8,31.4,221.1,31.7z"/>
        <path d="M39.8,29.8c9.4,7.5,18.8,15,28.4,22.7c-2.2,1.9-4.2,3.7-6.6,5.8c-7.2-9.1-14.7-18.5-22.3-28C39.5,30.1,39.7,30,39.8,29.8z"
        />
        <path d="M221.5,215.8c-9.2-7.4-18.5-14.7-28.3-22.6c2.6-1.7,4.9-3.2,7.5-4.8c6.5,8.1,13.9,17.5,21.3,26.9
		C221.8,215.5,221.7,215.6,221.5,215.8z"/>
        <path class="st0" d="M130.3,43.7c7.8,5.2,15.1,10.1,22.8,15.2c5.3,0,10.9,0,16.9,0c0,3.5,0,6.6,0,9.9c8.1,3.4,15.9,6.7,24.1,10.1
		c-1.2,28.8-2.4,57.5-3.6,86.2c-20.1,15.8-39.9,31.5-60,47.3c-20.2-15.8-40.2-31.5-60.4-47.3c-1.6-28.6-3.2-57.2-4.8-86.3
		c7.6-3.3,15.1-6.6,22.9-10c0-3.3,0-6.4,0-9.9c6.7,0,12.9,0,18.8,0C115,53.7,122.5,48.8,130.3,43.7z M126.3,118.2
		c0-21,0-41.8,0-63.3c-5.7,4.2-10.8,7.9-15.5,11.3c-6.4,0.6-12.4-0.2-18.2,0.6c-0.5,6.1,3.6,69.5,5.1,79.7
		c10.6,8.2,21.5,16.7,32.6,25.3c11-8.4,21.7-16.5,32.4-24.7c1-26.8,3.8-53.4,4-80.5c-6.2,0-11.8,0-16.9,0c-5.4-4-10.3-7.7-15.9-11.8
		c0,21.9,0,42.6,0,63.6C131.3,118.2,129,118.2,126.3,118.2z M87.3,79c-5,2.3-9.1,4.2-13.2,6.1c1.5,25.3,2.9,50,4.4,74.8
		c17.4,13.7,34.6,27.2,52.1,41.1c17.3-13.7,34.5-27.3,51.8-41c1.3-25,2.6-49.9,3.9-74.8c-4.6-2.2-8.7-4.2-13.1-6.4
		c-1.4,23.5-2.8,46.3-4.2,69.3c-12.2,9.3-24.4,18.5-36.6,27.7c-1,0.7-2.4,0.8-3.8,1.3c-12.5-9.5-24.7-18.9-37-28.3
		C90.2,125.7,88.8,102.8,87.3,79z"/>
        <path d="M126.3,118.2c2.7,0,5,0,7.6,0c0-20.9,0-41.7,0-63.6c5.6,4.2,10.4,7.8,15.9,11.8c5.1,0,10.7,0,16.9,0
		c-0.2,27.2-3,53.7-4,80.5c-10.7,8.2-21.4,16.3-32.4,24.7c-11.1-8.6-21.9-17-32.6-25.3c-1.6-10.2-5.7-73.6-5.1-79.7
		c5.8-0.8,11.8,0,18.2-0.6c4.7-3.4,9.8-7.1,15.5-11.3C126.3,76.3,126.3,97.1,126.3,118.2z"/>
        <path d="M87.3,79c1.5,23.8,2.9,46.7,4.4,69.8c12.3,9.4,24.6,18.8,37,28.3c1.4-0.4,2.8-0.6,3.8-1.3c12.2-9.2,24.4-18.5,36.6-27.7
		c1.4-23,2.8-45.7,4.2-69.3c4.4,2.2,8.5,4.1,13.1,6.4c-1.3,24.9-2.6,49.8-3.9,74.8c-17.3,13.7-34.5,27.3-51.8,41
		c-17.5-13.8-34.8-27.4-52.1-41.1c-1.5-24.8-2.9-49.6-4.4-74.8C78.2,83.2,82.3,81.3,87.3,79z"/>
</g>
</svg>
