<?xml version="1.0" encoding="utf-8"?>
<!-- Generator: Adobe Illustrator 19.0.0, SVG Export Plug-In . SVG Version: 6.00 Build 0)  -->
<svg version="1.1" id="图层_1" xmlns="http://www.w3.org/2000/svg" x="0px" y="0px"
     viewBox="0 0 256 256" style="enable-background:new 0 0 256 256;" xml:space="preserve">
<style type="text/css">
	.st0{fill:#FFFFFF;}
</style>
    <g>
	<path class="st0" d="M256,256c-85.3,0-170.6,0-256,0C0,170.7,0,85.4,0,0c85.3,0,170.6,0,256,0C256,85.3,256,170.6,256,256z
		 M71.1,87c1,0.9,2.1,1.7,3,2.7c27.7,27.7,55.3,55.4,83.2,83c7.6,7.5,15,15.2,20,24.7c1.1,2.2,2.9,3.5,5.1,4.5
		c7.5,3.7,14.8,7.5,22.3,11.3c5.7,2.9,11.4,5.7,17.3,8.7c-0.1-0.9,0-1.2-0.1-1.5c-6.4-12.4-12.9-24.8-19.2-37.3
		c-1.6-3.1-3.7-5.4-6.6-7.1c-5.6-3.3-11-6.7-15.7-11.4c-27-27.2-54.1-54.2-81.2-81.3c-4.2-4.2-8.5-8.4-12.3-12.2
		c-4.3,0-7.9,0-12.5,0c29.6,29.6,58.5,58.5,87.5,87.6c-1,1.1-1.7,2-2.8,3.2c-14.7-14.7-29.2-29.2-43.7-43.6
		c-14.5-14.5-28.9-29.1-44.2-44.1C71.1,79,71.1,82.7,71.1,87z M51.2,61.7c0,12.2,0,23.6,0,35c4.5,0,8.5,0,13,0c0-10.8,0-21.2,0-32.2
		c11,0,21.6,0,32.3,0c0.4-4.8,0.5-9,0-13.4c-12,0-23.5,0-35,0c-8.6-8.5-17-16.9-24.8-24.6c-4,3.6-7.6,6.7-11.5,10.1
		C34.2,45.1,42.6,53.3,51.2,61.7z M102.2,229.5c0,0.1,0,0.3,0,0.4c36.1,0,72.2,0,108.3,0c-23.6-10-47.2-19.7-71.3-28.3
		c7.5,6.9,15.1,13.9,23.2,21.4C141.7,225.2,122,227.4,102.2,229.5z M230.1,102.3c-0.2,0-0.3,0-0.5,0c-2.1,19.7-4.2,39.3-6.4,60
		c-7.6-8.3-14.5-15.8-21.4-23.3c-0.3,0.2-0.5,0.3-0.8,0.5c9.5,23.7,19,47.3,28.5,71c0.2-0.1,0.4-0.2,0.6-0.2
		C230.1,174.3,230.1,138.3,230.1,102.3z"/>
        <path d="M71.1,87c0-4.3,0-8,0-12.7c15.3,15,29.7,29.6,44.2,44.1c14.5,14.4,29,28.9,43.7,43.6c1.1-1.2,1.8-2,2.8-3.2
		c-29.1-29.1-58-58-87.5-87.6c4.6,0,8.2,0,12.5,0c3.8,3.8,8.1,7.9,12.3,12.2c27.1,27.1,54.2,54.1,81.2,81.3
		c4.7,4.7,10.1,8.1,15.7,11.4c3,1.7,5.1,4,6.6,7.1c6.3,12.5,12.8,24.9,19.2,37.3c0.1,0.3,0.1,0.6,0.1,1.5c-5.9-3-11.6-5.8-17.3-8.7
		c-7.4-3.8-14.8-7.6-22.3-11.3c-2.2-1.1-4-2.3-5.1-4.5c-5-9.6-12.4-17.2-20-24.7c-27.8-27.6-55.4-55.3-83.2-83
		C73.2,88.7,72.1,87.9,71.1,87z"/>
        <path d="M51.2,61.7c-8.6-8.4-17-16.6-25.8-25.2c3.8-3.4,7.4-6.5,11.5-10.1c7.8,7.7,16.2,16.1,24.8,24.6c11.5,0,22.9,0,35,0
		c0.4,4.4,0.4,8.6,0,13.4c-10.7,0-21.3,0-32.3,0c0,11,0,21.4,0,32.2c-4.5,0-8.6,0-13,0C51.2,85.3,51.2,73.9,51.2,61.7z"/>
        <path d="M102.2,229.5c19.8-2.1,39.5-4.2,60.2-6.5c-8.2-7.5-15.7-14.5-23.2-21.4c24.2,8.6,47.8,18.3,71.3,28.3
		c-36.1,0-72.2,0-108.3,0C102.2,229.7,102.2,229.6,102.2,229.5z"/>
        <path d="M230.1,102.3c0,36,0,71.9,0,107.9c-0.2,0.1-0.4,0.2-0.6,0.2c-9.5-23.7-19-47.3-28.5-71c0.3-0.2,0.5-0.3,0.8-0.5
		c6.9,7.5,13.8,15.1,21.4,23.3c2.2-20.6,4.3-40.3,6.4-60C229.8,102.3,229.9,102.3,230.1,102.3z"/>
</g>
</svg>
