<?xml version="1.0" encoding="utf-8"?>
<!-- Generator: Adobe Illustrator 19.0.0, SVG Export Plug-In . SVG Version: 6.00 Build 0)  -->
<svg version="1.1" id="图层_1" xmlns="http://www.w3.org/2000/svg" x="0px" y="0px"
     viewBox="0 0 256 256" style="enable-background:new 0 0 256 256;" xml:space="preserve">
<style type="text/css">
	.st0{fill:#FFFFFF;}
</style>
    <g>
	<path class="st0" d="M256,256c-85.3,0-170.6,0-256,0C0,170.7,0,85.4,0,0c85.3,0,170.6,0,256,0C256,85.3,256,170.6,256,256z
		 M114.5,121.8c-27.6,16-55,31.8-82.4,47.7c4.8,8.3,9.3,16,13.9,24c27.6-16,54.9-31.7,82.4-47.5c26.5,15.3,53,30.6,79.6,45.9
		c4.7-8.2,9.3-16,13.9-24.1c-26.7-15.4-53.1-30.7-79.7-46.1c0-30.4,0-60.5,0-90.7c-9.4,0-18.3,0-27.6,0
		C114.5,61.4,114.5,91.6,114.5,121.8z M114.6,231.9c9.4,0,18.3,0,27.5,0c0-19.7,0-39.1,0-58.8c-4.5-2.7-9.1-5.3-13.7-8
		c-4.8,2.8-9.4,5.5-13.8,8.1C114.6,192.8,114.6,212.1,114.6,231.9z M33.5,91.1c17,9.8,33.7,19.5,50.3,29.1c4.9-2.9,9.3-5.5,13.6-8
		c0-5.6,0-10.8,0-16.3c-16.5-9.5-33.1-19.1-50-28.9C42.7,75.3,38.2,83,33.5,91.1z M172.9,120.2c15.9-9.2,31.6-18.3,47.6-27.5
		c-4.8-8.3-9.3-16.1-13.9-24.1C190.4,78,174.8,87,159.3,96c0,5.6,0,10.9,0,16.2C163.8,114.9,168.1,117.4,172.9,120.2z M225.8,131.6
		c-7.1-7-14-13.9-20.6-20.5c-2.2,2.3-4.6,4.7-7.5,7.8c4.3,3.9,8.8,8.1,13.8,12.7c-4.9,4.5-9.4,8.6-13.7,12.6c2.7,3,5,5.5,7,7.8
		C212,144.9,218.9,138.2,225.8,131.6z M56.7,144.4c-4.2-4.3-8.6-8.7-13.7-13.9c4.9-4.7,9.3-8.9,13.7-13c-2.4-2.5-4.6-4.9-6.4-6.8
		c-7.3,7.1-14.4,14.1-21.1,20.7c6.6,6.7,13.4,13.6,20.4,20.7C51.9,149.6,54.2,147.1,56.7,144.4z M80.5,69c0-6.5,0-12.4,0-19
		c6.5,0,12.6,0,18.8,0c0-3.9,0-7.1,0-10.6c-9.9,0-19.5,0-29.1,0c-1,5.1-0.9,26,0.2,29.6C73.4,69,76.6,69,80.5,69z M80.3,212.2
		c0-6.5,0-12.5,0-19.1c-3.9,0.4-7.4-0.7-10.5,0.7c0,9.9,0,19.4,0,29.1c9.9,0,19.6,0,29.6,0c0-3.6,0.5-7-0.3-10.7
		C92.8,212.2,86.8,212.2,80.3,212.2z M157.1,50.3c6.6,0,12.7,0,19.1,0c0,6.5,0,12.4,0,18.5c3.7,0,7.1,0,10.4,0c0-10,0-19.5,0-29.5
		c-10.1-0.1-19.8-0.5-29.5,0.2C157.1,43.2,157.1,46.3,157.1,50.3z M186.7,223c0-10.1,0-19.7,0-29.5c-3.6,0-6.8,0-10.6,0
		c0,6.3,0,12.4,0,19c-6.6,0-12.7,0-18.9,0c0,3.8,0,7,0,10.5C167.1,223,176.7,223,186.7,223z"/>
        <path d="M114.5,121.8c0-30.2,0-60.4,0-90.8c9.3,0,18.2,0,27.6,0c0,30.2,0,60.3,0,90.7c26.6,15.4,53,30.6,79.7,46.1
		c-4.6,8-9.2,15.9-13.9,24.1c-26.7-15.4-53.1-30.6-79.6-45.9c-27.4,15.8-54.7,31.6-82.4,47.5c-4.7-8-9.1-15.8-13.9-24
		C59.5,153.6,86.9,137.7,114.5,121.8z"/>
        <path d="M114.6,231.9c0-19.8,0-39.1,0-58.7c4.4-2.6,9-5.3,13.8-8.1c4.6,2.7,9.2,5.4,13.7,8c0,19.7,0,39.1,0,58.8
		C132.9,231.9,124,231.9,114.6,231.9z"/>
        <path d="M33.5,91.1c4.7-8.1,9.2-15.9,13.9-24.1c16.9,9.8,33.5,19.3,50,28.9c0,5.5,0,10.6,0,16.3c-4.3,2.5-8.7,5.1-13.6,8
		C67.2,110.6,50.5,101,33.5,91.1z"/>
        <path d="M172.9,120.2c-4.8-2.8-9.1-5.3-13.6-8c0-5.3,0-10.6,0-16.2c15.5-9,31.1-18,47.3-27.3c4.6,7.9,9.1,15.8,13.9,24.1
		C204.6,101.9,188.9,111,172.9,120.2z"/>
        <path d="M225.8,131.6c-6.9,6.7-13.8,13.4-21,20.4c-2-2.2-4.3-4.8-7-7.8c4.4-4,8.9-8.1,13.7-12.6c-5-4.6-9.5-8.7-13.8-12.7
		c2.9-3,5.3-5.5,7.5-7.8C211.9,117.7,218.8,124.5,225.8,131.6z"/>
        <path d="M56.7,144.4c-2.5,2.7-4.8,5.2-7.1,7.7c-7-7.1-13.8-13.9-20.4-20.7c6.8-6.6,13.8-13.5,21.1-20.7c1.8,1.9,4,4.3,6.4,6.8
		c-4.3,4.1-8.8,8.3-13.7,13C48.1,135.7,52.5,140.1,56.7,144.4z"/>
        <path d="M80.5,69c-3.9,0-7,0-10.1,0c-1.1-3.6-1.3-24.4-0.2-29.6c9.5,0,19.2,0,29.1,0c0,3.4,0,6.7,0,10.6c-6.2,0-12.3,0-18.8,0
		C80.5,56.6,80.5,62.5,80.5,69z"/>
        <path d="M80.3,212.2c6.5,0,12.4,0,18.7,0c0.8,3.8,0.3,7.1,0.3,10.7c-10,0-19.6,0-29.6,0c0-9.7,0-19.3,0-29.1
		c3.2-1.4,6.6-0.3,10.5-0.7C80.3,199.7,80.3,205.7,80.3,212.2z"/>
        <path d="M157.1,50.3c0-4,0-7.1,0-10.8c9.8-0.7,19.5-0.3,29.5-0.2c0,9.9,0,19.5,0,29.5c-3.4,0-6.7,0-10.4,0c0-6.1,0-12,0-18.5
		C169.8,50.3,163.8,50.3,157.1,50.3z"/>
        <path d="M186.7,223c-10,0-19.6,0-29.5,0c0-3.5,0-6.7,0-10.5c6.2,0,12.3,0,18.9,0c0-6.6,0-12.6,0-19c3.8,0,7,0,10.6,0
		C186.7,203.3,186.7,212.8,186.7,223z"/>
</g>
</svg>
