<?xml version="1.0" encoding="utf-8"?>
<!-- Generator: Adobe Illustrator 19.0.0, SVG Export Plug-In . SVG Version: 6.00 Build 0)  -->
<svg version="1.1" id="图层_1" xmlns="http://www.w3.org/2000/svg" x="0px" y="0px"
     viewBox="0 0 256 256" style="enable-background:new 0 0 256 256;" xml:space="preserve">
<style type="text/css">
	.st0{fill:#FFFFFF;}
</style>
    <g>
	<path class="st0" d="M0,0c85.3,0,170.6,0,256,0c0,85.3,0,170.6,0,256c-85.3,0-170.6,0-256,0C0,170.7,0,85.4,0,0z M63.8,187
		c-10,10.1-20,20.1-30.1,30.3c3.8,3.7,7.4,7.1,11.1,10.7c9.8-9.9,19.8-19.9,29.8-30c12.8-1.1,25.5-2.1,38.6-3.2
		c0.4-5,0.7-9.5,1.1-14.4c-6.1-0.6-11.5,1.6-17,0.5c6.5-6.6,12.8-13,19.3-19.5c29,0,58.1,0,87.6,0c-1.4,2.5-2.6,4.6-3.5,6.1
		c1.8,2.2,3.3,4,5.1,6.2c6.6-10.6,12.9-20.7,19.2-30.8c-5.5-22.2-10.9-44.1-16.6-67.1c-2.4-2.1-5.4-4.8-8.3-7.4
		c1.4-3.8,2.6-7.3,4.1-11.6c-4.3,1.6-7.8,2.8-11.7,4.2c-2.8-3-5.5-6.1-7.7-8.5c-22.8-5.7-44.5-11.1-66.3-16.5
		C108.3,42.4,98.2,48.8,88.1,55c1.9,2.1,3.5,4,5.1,5.8c3-1.8,5.6-3.4,9-5.4c-0.7,30.5-1.4,60.2-2,89.3c-6.9,6.8-13.3,13.3-20.1,20
		c0.4-6,0.8-11.6,1.3-17.7c-5.2,0.5-9.7,0.9-14.5,1.3C65.9,161.2,64.8,173.8,63.8,187z M169.1,30.1c0,0.2,0,0.3,0,0.5
		c17,2.8,33.9,5.7,50.9,8.5c2.9,17.7,5.7,34.9,8.5,52c0.1,0,0.3,0,0.4,0c0-20.2,0-40.5,0-61C208.8,30.1,188.9,30.1,169.1,30.1z
		 M127.1,174.6c17-0.7,33.4-1.3,50.1-1.9c-4.2-1.3-43.9-3.1-50.1-2.3C127.1,171.6,127.1,172.8,127.1,174.6z M89.8,84.5
		c-0.2-0.1-0.4-0.1-0.6-0.2c-0.7,16.7-1.4,33.4-2.2,50.3c1.9,0,3.3,0,5,0C91.2,117.6,90.5,101,89.8,84.5z"/>
        <path d="M63.8,187c1.1-13.1,2.1-25.7,3.2-38.6c4.8-0.4,9.4-0.9,14.5-1.3c-0.4,6.1-0.8,11.8-1.3,17.7c6.8-6.7,13.2-13.2,20.1-20
		c0.7-29.1,1.3-58.8,2-89.3c-3.4,2-6.1,3.6-9,5.4C91.7,59,90,57.1,88.1,55c10-6.3,20.1-12.6,30.4-19.1c21.7,5.4,43.5,10.8,66.3,16.5
		c2.2,2.4,5,5.5,7.7,8.5c3.9-1.4,7.4-2.7,11.7-4.2c-1.5,4.3-2.8,7.8-4.1,11.6c3,2.6,6,5.3,8.3,7.4c5.7,23,11.1,44.9,16.6,67.1
		c-6.3,10-12.6,20.2-19.2,30.8c-1.8-2.2-3.4-4-5.1-6.2c0.9-1.5,2.1-3.6,3.5-6.1c-29.6,0-58.7,0-87.6,0c-6.5,6.6-12.8,12.9-19.3,19.5
		c5.5,1.1,11-1.1,17-0.5c-0.4,4.8-0.7,9.4-1.1,14.4c-13.1,1.1-25.8,2.1-38.6,3.2c-10,10.1-20,20.1-29.8,30c-3.7-3.6-7.3-7-11.1-10.7
		C43.8,207.1,53.7,197,63.8,187z M105.7,158.1c33.5,0,67.2,0,100.8,0c3.4-5.5,6.6-10.7,9.7-15.7c-4.3-17.4-8.5-34.3-12.7-51.3
		c-2.2-0.8-4-1.4-6-2.1c-5.6,2.2-11.2,4.3-16.7,6.6c-2.1,0.9-4.1,2.2-5.7,3.7c-3.1,2.8-5.9,5.9-8.7,8.8c-1.2-0.4-2.1-0.7-3.3-1.2
		c-15.3,15.3-30.7,30.5-46.2,45.9c-2.7,0.2-5.7,0.5-9.1,0.7c0.2-3.6,0.4-6.7,0.7-11c14.9-14.6,30.4-29.8,45.7-44.7
		c-0.4-1.3-0.7-2.1-1.1-3.4c3.1-3,6.2-5.8,9.2-8.7c1.1-1,2.2-2.2,2.7-3.5c2.6-6.3,4.9-12.7,7.3-19c-0.9-2.2-1.7-4.1-2.5-5.9
		c-17.2-4.3-34-8.5-51-12.7c-4.5,2.9-9.1,5.8-13.6,8.7c-0.7,34.6-1.5,68.7-2.2,103.6c-1.2,1-2.7,2-4,3.3
		c-5.9,5.9-11.8,11.8-17.7,17.7c-1.2,1.2-3.2,2.2-2,4.5c0.4,0,0.9,0.2,1,0C88.6,174.7,96.8,166.7,105.7,158.1z"/>
        <path d="M169.1,30.1c19.8,0,39.7,0,59.8,0c0,20.5,0,40.8,0,61c-0.1,0-0.3,0-0.4,0c-2.8-17.2-5.6-34.4-8.5-52
		c-17-2.8-33.9-5.7-50.9-8.5C169.1,30.5,169.1,30.3,169.1,30.1z"/>
        <path d="M127.1,174.6c0-1.8,0-3,0-4.2c6.2-0.8,45.8,1,50.1,2.3C160.5,173.3,144.1,173.9,127.1,174.6z"/>
        <path d="M89.8,84.5c0.7,16.6,1.5,33.1,2.2,50.1c-1.7,0-3,0-5,0c0.7-16.9,1.5-33.6,2.2-50.3C89.4,84.4,89.6,84.4,89.8,84.5z"/>
        <path class="st0" d="M105.7,158.1c-8.8,8.6-17,16.6-25.3,24.5c-0.2,0.1-0.6,0-1,0c-1.2-2.3,0.8-3.3,2-4.5
		c5.8-5.9,11.7-11.8,17.7-17.7c1.3-1.3,2.8-2.4,4-3.3c0.7-34.9,1.5-69,2.2-103.6c4.5-2.8,9.1-5.8,13.6-8.7c17,4.2,33.8,8.4,51,12.7
		c0.8,1.8,1.6,3.7,2.5,5.9c-2.4,6.3-4.8,12.7-7.3,19c-0.5,1.3-1.7,2.5-2.7,3.5c-3,2.9-6.1,5.7-9.2,8.7c0.4,1.2,0.7,2.1,1.1,3.4
		c-15.3,15-30.7,30.1-45.7,44.7c-0.3,4.3-0.5,7.4-0.7,11c3.5-0.3,6.4-0.5,9.1-0.7c15.5-15.4,30.8-30.7,46.2-45.9
		c1.2,0.4,2.1,0.7,3.3,1.2c2.9-2.9,5.7-6,8.7-8.8c1.7-1.5,3.7-2.8,5.7-3.7c5.5-2.4,11.1-4.4,16.7-6.6c2,0.7,3.8,1.3,6,2.1
		c4.2,16.9,8.4,33.9,12.7,51.3c-3,4.9-6.3,10.1-9.7,15.7C172.8,158.1,139.2,158.1,105.7,158.1z"/>
</g>
</svg>
