<?xml version="1.0" encoding="utf-8"?>
<!-- Generator: Adobe Illustrator 19.0.0, SVG Export Plug-In . SVG Version: 6.00 Build 0)  -->
<svg version="1.1" id="图层_1" xmlns="http://www.w3.org/2000/svg" x="0px" y="0px"
     viewBox="0 0 256 256" style="enable-background:new 0 0 256 256;" xml:space="preserve">
<style type="text/css">
	.st0{fill:#FFFFFF;}
</style>
    <g>
	<path class="st0" d="M0,256C0,170.7,0,85.4,0,0c85.3,0,170.6,0,256,0c0,85.3,0,170.6,0,256C170.7,256,85.4,256,0,256z M141,143.7
		c-3,6.1-5.8,11.6-8.7,17.4c18.6,0,36.5,0,54.7,0c-0.9-1.9-1.6-3.3-2.2-4.6c-18-35.6-36.1-71.3-53.9-107c-1.4-2.9-2.1-6.2-2.6-9.5
		c-0.7-4.9-1-9.9-1.5-14.8c-0.4,0-0.9,0-1.3,0c-0.2,1.9-0.4,3.8-0.4,5.7c-0.4,8.9-2.1,17.2-6.4,25.2C107,78.1,96,100.4,84.9,122.6
		c-3,5.9-5.9,11.8-9.1,18.2c15.6,0,30.5,0,45.7,0c2.9-5.7,5.7-11.3,9-17.9c-9.6,0-18.3,0-27.6,0c8-15.8,15.5-30.8,23.3-46.2
		c11.4,22.6,22.5,44.5,33.8,67C153.3,143.7,147.4,143.7,141,143.7z M26.8,219c0.2,0.3,0.4,0.5,0.5,0.8c3.8-2,7.7-3.8,11.4-5.9
		c4.3-2.5,8.8-3.4,13.8-3.4c49.4,0.1,98.7,0.1,148.1,0c4.8,0,9.1,0.9,13.3,3.3c3.5,2,7.2,3.6,10.8,5.4c0.2-0.3,0.3-0.6,0.5-0.9
		c-2-1.7-4.1-3.3-6.1-5c-5.8-4.7-11.4-9.4-14.3-16.8c-2.4-6.1-5.9-11.8-8.8-17.4c-6.1,0-11.7,0-17.8,0c2.2,4.7,4.2,8.8,6.2,13.1
		c-39.1,0-77.5,0-116.5,0c5.7-11.5,11.2-22.4,17-33.9c-6.6,0-12.1,0-17.8,0c-0.8,1.3-1.5,2.4-2.1,3.6c-6.6,13.1-13.1,26.2-19.9,39.2
		c-1.5,2.8-3.7,5.5-6.1,7.7C35.1,212.4,30.9,215.6,26.8,219z"/>
        <path d="M141,143.7c6.4,0,12.3,0,19.1,0c-11.4-22.5-22.4-44.4-33.8-67c-7.8,15.5-15.3,30.4-23.3,46.2c9.3,0,17.9,0,27.6,0
		c-3.3,6.6-6.1,12.2-9,17.9c-15.2,0-30.1,0-45.7,0c3.2-6.4,6.1-12.3,9.1-18.2C96,100.4,107,78.1,118.6,56.3c4.3-8.1,6-16.4,6.4-25.2
		c0.1-1.9,0.3-3.8,0.4-5.7c0.4,0,0.9,0,1.3,0c0.5,4.9,0.7,9.9,1.5,14.8c0.5,3.2,1.1,6.6,2.6,9.5c17.9,35.7,35.9,71.3,53.9,107
		c0.7,1.3,1.3,2.7,2.2,4.6c-18.2,0-36,0-54.7,0C135.2,155.3,138,149.7,141,143.7z"/>
        <path d="M26.8,219c4.1-3.4,8.3-6.6,12.2-10.2c2.4-2.2,4.6-4.8,6.1-7.7c6.8-13,13.3-26.1,19.9-39.2c0.6-1.2,1.3-2.3,2.1-3.6
		c5.6,0,11.2,0,17.8,0c-5.8,11.5-11.2,22.4-17,33.9c39,0,77.5,0,116.5,0c-2.1-4.3-4-8.5-6.2-13.1c6.2,0,11.7,0,17.8,0
		c2.9,5.6,6.4,11.3,8.8,17.4c2.9,7.4,8.5,12.1,14.3,16.8c2.1,1.6,4.1,3.3,6.1,5c-0.2,0.3-0.3,0.6-0.5,0.9c-3.6-1.8-7.3-3.3-10.8-5.4
		c-4.2-2.4-8.5-3.3-13.3-3.3c-49.4,0.1-98.7,0.1-148.1,0c-5,0-9.5,0.9-13.8,3.4c-3.7,2.2-7.6,4-11.4,5.9
		C27.2,219.6,27,219.3,26.8,219z"/>
</g>
</svg>
