<?xml version="1.0" encoding="utf-8"?>
<!-- Generator: Adobe Illustrator 19.0.0, SVG Export Plug-In . SVG Version: 6.00 Build 0)  -->
<svg version="1.1" id="图层_1" xmlns="http://www.w3.org/2000/svg" x="0px" y="0px"
     viewBox="0 0 256 256" style="enable-background:new 0 0 256 256;" xml:space="preserve">
<style type="text/css">
	.st0{fill:#FFFFFF;}
</style>
    <g>
	<path class="st0" d="M256,256c-85.3,0-170.6,0-256,0C0,170.7,0,85.4,0,0c85.3,0,170.6,0,256,0C256,85.3,256,170.6,256,256z
		 M37.3,218.9c28.4,0,56.7,0,85.5,0c0-24.1,0-48,0-71.9c5,4.7,9.6,9.1,14.5,13.7c0,9,0,18.1,0,27.4c12.7,0,25,0,38.1,0
		c-29.9-29.6-59.3-58.7-88.8-87.9c-5.4,0-11.4,0-17.4,0c0,29.5,0,58.7,0,88.5c5,0,9.6,0,14.2,0c0,4.8,0,9.1,0,13.4
		c-10.1,0-19.8,0-29.9,0c0-38.9,0-77.5,0-116.9c10.9,0,21.7,0,32.7,0c0-11.3,0-21.9,0-32.4c5,0,9.6,0,14.6,0c0,11.7,0,23,0,33.9
		c29.3,28.9,58.1,57.5,87,86.1c0-35.1,0-70.5,0-106.5c-11,0-21.7,0-32.7,0c0-4.9,0-9.1,0-13.5c16.1,0,32,0,47.9,0
		c0,50.2,0,100,0,150.1c-22.1,0-44,0-65.8,0c0,5.6,0,10.7,0,16c27.5,0,54.7,0,82.1,0c0-61,0-121.6,0-182.4c-28,0-55.7,0-84,0
		c0,25,0,49.7,0,74.4c-5-4.7-9.6-9.2-14.6-14c0-20,0-40.3,0-60.5c-28.1,0-55.7,0-83.5,0C37.3,97.4,37.3,158,37.3,218.9z"/>
        <path d="M37.3,218.9c0-60.9,0-121.5,0-182.5c27.8,0,55.4,0,83.5,0c0,20.2,0,40.5,0,60.5c5,4.8,9.7,9.2,14.6,14
		c0-24.7,0-49.4,0-74.4c28.2,0,55.9,0,84,0c0,60.8,0,121.4,0,182.4c-27.3,0-54.6,0-82.1,0c0-5.3,0-10.4,0-16c21.8,0,43.7,0,65.8,0
		c0-50.1,0-99.9,0-150.1c-15.9,0-31.8,0-47.9,0c0,4.4,0,8.6,0,13.5c10.9,0,21.7,0,32.7,0c0,36,0,71.4,0,106.5
		c-28.9-28.6-57.7-57.1-87-86.1c0-10.9,0-22.2,0-33.9c-5,0-9.6,0-14.6,0c0,10.5,0,21.1,0,32.4c-11.1,0-21.8,0-32.7,0
		c0,39.3,0,77.9,0,116.9c10,0,19.8,0,29.9,0c0-4.3,0-8.5,0-13.4c-4.6,0-9.2,0-14.2,0c0-29.8,0-59,0-88.5c6,0,12,0,17.4,0
		c29.5,29.2,58.9,58.3,88.8,87.9c-13.1,0-25.4,0-38.1,0c0-9.3,0-18.4,0-27.4c-4.9-4.6-9.5-9-14.5-13.7c0,23.9,0,47.8,0,71.9
		C94,218.9,65.7,218.9,37.3,218.9z M53.5,78c8.8,0,17,0,25.4,0c0-8.6,0-16.8,0-25.2c-8.6,0-17,0-25.4,0C53.5,61.3,53.5,69.4,53.5,78
		z"/>
        <path class="st0"
              d="M53.5,78c0-8.5,0-16.6,0-25.2c8.5,0,16.8,0,25.4,0c0,8.3,0,16.6,0,25.2C70.5,78,62.3,78,53.5,78z"/>
</g>
</svg>
