<?xml version="1.0" encoding="utf-8"?>
<!-- Generator: Adobe Illustrator 19.0.0, SVG Export Plug-In . SVG Version: 6.00 Build 0)  -->
<svg version="1.1" id="图层_1" xmlns="http://www.w3.org/2000/svg" x="0px" y="0px"
     viewBox="0 0 256 256" style="enable-background:new 0 0 256 256;" xml:space="preserve">
<style type="text/css">
	.st0{fill:#FFFFFF;}
</style>
    <g>
	<path class="st0" d="M0,0c85.3,0,170.6,0,256,0c0,85.3,0,170.5,0,256c-85.3,0-170.6,0-256,0C0,170.8,0,85.4,0,0z M23.9,190.5
		c0.2,0.2,0.4,0.4,0.6,0.6c0.8-0.4,1.7-0.8,2.5-1.2c6.2-3.3,12.3-6.6,18.5-9.9c51.6-27.4,103.2-54.8,154.7-82.3
		c4.4-2.3,9.4-4.1,12.8-7.5c3.4-3.4,5.3-8.4,7.7-12.7c1.5-2.7,3-5.4,4.4-8c-4.1,1.1-7.6,2.9-11,4.8
		c-55.8,29.7-111.6,59.5-167.6,88.9c-7.4,3.9-13.2,8.5-16.6,16.2C28.4,183.3,26,186.8,23.9,190.5z M127.6,226.5c0.3,0,0.7,0,1,0
		c0.9-19.9,1.9-39.8,2.8-60c18.7-10,37.3-19.9,55.6-29.6c1.4-2.2,2.5-4,3.8-6.1c13-0.7,26.1-1.3,39.1-2c0-0.2,0-0.4,0-0.6
		c-12.1-0.6-24.1-1.3-36.6-2c2.3-4.2,4.3-7.8,6.8-12.3c-5.7,3-10.4,5.5-15,8.1c-4.1,2.3-8.3,4.2-13.2,3.3c-0.9-0.2-1.9,0.1-3,0.2
		c-0.2,1.9-0.3,3.5-0.4,5.3c-21.2,11.3-42.3,22.5-63.4,33.8c-4,7.4-8.5,14.4-12.6,22.7c11.3-6,21.7-11.5,32.6-17.2
		C125.8,189.2,126.7,207.9,127.6,226.5z M144.4,95.4c4.2-7.4,8.3-14.6,13-22.9c-9.3,4.9-17.5,9.3-26.1,13.9
		c-0.3-5.2-0.6-9.8-0.9-14.4c-0.2-4.7-0.4-9.3-0.6-14c-0.2-4.7-0.4-9.3-0.8-14c-0.3-4.4,0.4-9-1.5-13.3c-0.9,19.6-1.8,39.2-2.8,59
		c-1.7,0.9-3.3,1.8-4.9,2.7c-17.8,9.5-35.6,18.9-53.3,28.5c-2.4,1.3-4.5,3.2-6.7,4.8c0.1,0.3,0.2,0.5,0.3,0.8
		c-11.1,0.6-22.2,1.2-33.3,1.7c0,0.2,0,0.4,0,0.6c10.2,0.5,20.4,1.1,31.1,1.7c-2.9,5.1-5.4,9.7-8,14.2c0.2,0.2,0.3,0.4,0.5,0.6
		c8.9-4.7,17.8-9.4,26-13.7c4,0,7.3,0,10.7,0c0.2-2.2,0.3-4.1,0.4-5.9C106.7,115.4,125.4,105.5,144.4,95.4z"/>
        <path d="M23.9,190.5c2.1-3.7,4.5-7.2,6.1-11.1c3.4-7.7,9.2-12.3,16.6-16.2c56-29.4,111.7-59.2,167.6-88.9c3.4-1.8,6.9-3.7,11-4.8
		c-1.5,2.7-2.9,5.4-4.4,8c-2.5,4.3-4.3,9.3-7.7,12.7c-3.4,3.4-8.4,5.2-12.8,7.5C148.7,125.2,97.1,152.6,45.5,180
		c-6.2,3.3-12.3,6.6-18.5,9.9c-0.8,0.4-1.6,0.8-2.5,1.2C24.3,190.9,24.1,190.7,23.9,190.5z"/>
        <path d="M127.6,226.5c-0.9-18.6-1.7-37.2-2.6-56.6c-10.9,5.8-21.3,11.2-32.6,17.2c4.1-8.2,8.6-15.2,12.6-22.7
		c21.1-11.2,42.2-22.5,63.4-33.8c0.2-1.9,0.3-3.5,0.4-5.3c1-0.1,2-0.3,3-0.2c4.9,1,9.1-0.9,13.2-3.3c4.6-2.6,9.3-5,15-8.1
		c-2.5,4.5-4.4,8.1-6.8,12.3c12.5,0.7,24.5,1.3,36.6,2c0,0.2,0,0.4,0,0.6c-13,0.7-26.1,1.3-39.1,2c-1.3,2.1-2.4,3.9-3.8,6.1
		c-18.3,9.7-36.9,19.7-55.6,29.6c-0.9,20.2-1.9,40.1-2.8,60C128.2,226.5,127.9,226.5,127.6,226.5z"/>
        <path d="M144.4,95.4c-19,10.1-37.7,20.1-56.7,30.2c-0.1,1.8-0.3,3.8-0.4,5.9c-3.4,0-6.7,0-10.7,0c-8.2,4.4-17.1,9-26,13.7
		c-0.2-0.2-0.3-0.4-0.5-0.6c2.5-4.5,5.1-9.1,8-14.2c-10.7-0.6-20.9-1.1-31.1-1.7c0-0.2,0-0.4,0-0.6c11.1-0.6,22.2-1.2,33.3-1.7
		c-0.1-0.3-0.2-0.5-0.3-0.8c2.2-1.6,4.3-3.5,6.7-4.8c17.7-9.6,35.5-19,53.3-28.5c1.6-0.9,3.2-1.7,4.9-2.7c0.9-19.8,1.8-39.4,2.8-59
		c2,4.3,1.2,8.9,1.5,13.3c0.3,4.7,0.5,9.3,0.8,14c0.2,4.7,0.4,9.3,0.6,14c0.2,4.6,0.5,9.2,0.9,14.4c8.6-4.6,16.8-8.9,26.1-13.9
		C152.7,80.8,148.6,88,144.4,95.4z"/>
</g>
</svg>
