<?xml version="1.0" encoding="utf-8"?>
<!-- Generator: Adobe Illustrator 19.0.0, SVG Export Plug-In . SVG Version: 6.00 Build 0)  -->
<svg version="1.1" id="图层_1" xmlns="http://www.w3.org/2000/svg" x="0px" y="0px"
     viewBox="0 0 400 400" style="enable-background:new 0 0 400 400;" xml:space="preserve">
<style type="text/css">
	.st0{opacity:0.8;stroke:#000000;stroke-miterlimit:10;enable-background:new    ;}
	.st1{fill:#910F0D;}
</style>
    <rect id="XMLID_1_" class="st0" width="400" height="400"/>
    <g id="XMLID_2_">
	<ellipse id="XMLID_116_" class="st1" cx="153" cy="104.9" rx="19" ry="19.8"/>
        <path id="XMLID_117_" class="st1" d="M236.6,129.5c-4.9,0-44.5,0-55.5,0s-17.6-1.2-29,14c-3.8,5.1-11.5,15-24.3,24.5
		c0,0-4.6,2.7-15.8,2.7s-11.5,4.9-11.5,10.2s1.6,9.1,17.1,9.1s25.4-5.4,29.3-8.6c3.9-3.3,13.2-14.4,13.2-14.4s12.5,23.5,15,28.7
		c2.5,5.2,4.6,8.4,2.2,14.4s-44.8,87.1-44.8,87.1c-2.6,5.2-5.3,9,3.8,14.4c9,5.4,12.5,3.3,14.4-0.6c2-3.9,49.8-94.4,50.6-96
		c0.7-1.6,1.4-2.6,3.9-2.6c2.5,0.1,2.2,1,2.2,4.4s0.1,41.7,0.1,44.4s0.3,8.4,8,8.4c7.7,0,64.1,0.9,71.6,1
		c13.7,0.1,17.5-20.5,0.3-20.5s-49,0-51.2,0s-4-0.9-4-5.8c0,0-0.5-21.4,0-32.1c0.3-7.8-3.4-13.5-3.4-13.5s-16.2-29.7-19.9-35.6
		c-3.7-5.9-3.1-15.6-1.7-16.3c1.4-0.7,4.4-0.7,4.4-0.7s13.9,0,18.8,0s4.4,0.1,7.1,4.5c2.8,4.4,14.8,24,18.2,28.3
		c3.4,4.3,7.8,5.3,11.5,2.2c5.6-5.2,6-9.3-0.7-18.1c-6.6-8.8-15.9-20.1-21.4-28.5C242.5,129.5,241.5,129.5,236.6,129.5z"/>
</g>
</svg>
